<svg width="21" height="21" viewBox="0 0 21 21" fill="none" xmlns="http://www.w3.org/2000/svg">
<path d="M10.9843 13.4278C6.4789 17.3679 0.854519 21.6772 0.0893157 20.9107C-0.6772 20.1442 3.63211 14.5198 7.56969 10.0144L10.9843 13.4278ZM20.5655 6.96062L18.9684 5.36352C19.667 4.32912 19.881 3.58956 19.8093 3.01852L21 1.82712L19.1735 0L17.9571 1.21638C16.9432 1.12151 15.4243 1.89316 12.6762 4.63999C11.6636 5.65322 10.4075 7.01189 9.10781 8.49488L12.5327 11.923C14.0183 10.6226 15.3756 9.36648 16.3895 8.35259C17.115 7.62582 17.6981 6.98879 18.1686 6.42035L19.1735 7.42459L15.9254 10.6726C15.6678 10.929 15.6678 11.3436 15.9254 11.5999C16.1818 11.8563 16.5971 11.8563 16.8534 11.5999L20.5654 7.88861C20.8219 7.63226 20.8219 7.21697 20.5655 6.96062Z" fill="black"/>
</svg>
